<svg id="Layer_1" data-name="Layer 1" xmlns="http://www.w3.org/2000/svg" viewBox="0 0 177.12 97.16"><defs><style>.cls-1{fill:#d5ecdf;}.cls-2{fill:#e01e49;}</style></defs><title>logo_4_1</title><path class="cls-1" d="M163.38,47.8a18.84,18.84,0,0,0-3.33-5.48,17.84,17.84,0,0,0-5-4,17,17,0,0,0-6.25-1.92,7.07,7.07,0,0,0-1-.08h-1.08a17.29,17.29,0,0,0-9.92,3,18.19,18.19,0,0,0-6.51,7.78,18.92,18.92,0,0,0-1.15,3.48,16.9,16.9,0,0,0,0,7.4c.09.39.21.77.32,1.15a4.59,4.59,0,0,0-1.43-.22,5.33,5.33,0,0,0-3.45,1.37,6.79,6.79,0,0,1-2.4,1.55,9.26,9.26,0,0,1-3.3.52,8,8,0,0,1-3.29-.67,7.89,7.89,0,0,1-2.63-1.85,8.93,8.93,0,0,1-1.74-2.7,8.33,8.33,0,0,1-.63-3.22V45.76h12.73a4.56,4.56,0,0,0,3.34-1.51,4.83,4.83,0,0,0,1.48-3.45,5,5,0,0,0-1.34-3.48,4.46,4.46,0,0,0-3.48-1.48H110.55V29.92A5.55,5.55,0,0,0,109,26.33a4.68,4.68,0,0,0-3.48-1.44A5.15,5.15,0,0,0,102,26.22a4.26,4.26,0,0,0-1.52,3.33V45.32a18.33,18.33,0,0,0-2.89-3.78,18.86,18.86,0,0,0-6-4,17.42,17.42,0,0,0-6.74-1.3,18.15,18.15,0,0,0-6.7,1.37,18.58,18.58,0,0,0-5.92,3.92l-7.64,7.64c-.14-.47-.29-.93-.47-1.38a18.84,18.84,0,0,0-3.33-5.48,17.84,17.84,0,0,0-5-4,17,17,0,0,0-6.25-1.92,7.07,7.07,0,0,0-1-.08H47.39a17.32,17.32,0,0,0-9.92,3,19.56,19.56,0,0,0-2.18,1.74,5.32,5.32,0,0,0-1.48-3.22,4.66,4.66,0,0,0-3.45-1.4A19.47,19.47,0,0,0,23.51,38a18.33,18.33,0,0,0-5.62,3.71A17.86,17.86,0,0,0,14,47.13a16.79,16.79,0,0,0-1.52,6.7v13.7A5.09,5.09,0,0,0,14,71a4.57,4.57,0,0,0,3.33,1.3A4.72,4.72,0,0,0,20.77,71a4.77,4.77,0,0,0,1.45-3.18V54.35a8.16,8.16,0,0,1,.66-3.29,8.66,8.66,0,0,1,1.78-2.63,8.09,8.09,0,0,1,5.78-2.37,5.5,5.5,0,0,0,1.16-.17c-.22.4-.45.79-.64,1.21a18.92,18.92,0,0,0-1.15,3.48,16.9,16.9,0,0,0,0,7.4A19.17,19.17,0,0,0,31,61.46a18.49,18.49,0,0,0,6.51,7.74,17.13,17.13,0,0,0,9.92,3,17.9,17.9,0,0,0,4.08-.45,19.44,19.44,0,0,0,3.62-1.26q.3-.15.6-.33a4.51,4.51,0,0,1,.66-.33,4.74,4.74,0,0,0,7.48,1,4.52,4.52,0,0,0,1.48-3.41V61.55a4.37,4.37,0,0,0,1.7-1L79.38,48.13A7.55,7.55,0,0,1,82,46.43a7.34,7.34,0,0,1,3-.52,9.51,9.51,0,0,1,3,.67,7.06,7.06,0,0,1,2.63,1.78,8.35,8.35,0,0,1,1.85,2.74,8.73,8.73,0,0,1,.59,2.66v.44a8.6,8.6,0,0,1-.63,3.26,7.52,7.52,0,0,1-1.81,2.67A9.55,9.55,0,0,1,88,61.9a7,7,0,0,1-3.26.6,7.62,7.62,0,0,1-5.4-2,4.69,4.69,0,0,0-3.44-1.41,4.44,4.44,0,0,0-3.37,1.41,4,4,0,0,0-1,1.44,5.19,5.19,0,0,0-.44,1.74,3.52,3.52,0,0,0,.26,1.7,6.21,6.21,0,0,0,.92,1.56,17.83,17.83,0,0,0,5.63,3.85,17.26,17.26,0,0,0,6.88,1.33,16.92,16.92,0,0,0,7-1.26,19.91,19.91,0,0,0,5.48-3.55l.82-.82a15.87,15.87,0,0,0,3.74-5.84c.1.26.18.52.29.77a17.69,17.69,0,0,0,4.11,5.78,18.31,18.31,0,0,0,6,3.7,20.31,20.31,0,0,0,7.25,1.3,16.73,16.73,0,0,0,6.67-1.34A18.82,18.82,0,0,0,131.8,67a3.84,3.84,0,0,0,.95-1.52,19.22,19.22,0,0,0,4,3.71,17.11,17.11,0,0,0,9.92,3,18,18,0,0,0,4.08-.45,19.44,19.44,0,0,0,3.62-1.26q.3-.15.6-.33a4.51,4.51,0,0,1,.66-.33,4.74,4.74,0,0,0,7.48,1,4.52,4.52,0,0,0,1.48-3.41V54.28A17.48,17.48,0,0,0,163.38,47.8ZM55,57.57a8.66,8.66,0,0,1-1.78,2.63,8,8,0,0,1-2.63,1.74,8.29,8.29,0,0,1-3.22.63,7.26,7.26,0,0,1-3-.67,9,9,0,0,1-2.62-1.77,8.5,8.5,0,0,1-1.85-2.63,7.57,7.57,0,0,1-.71-3.22,7.65,7.65,0,0,1,.67-3.15,8.59,8.59,0,0,1,1.81-2.66,8.85,8.85,0,0,1,2.63-1.82A7.55,7.55,0,0,1,47.32,46a7.81,7.81,0,0,1,3.15.66A8.74,8.74,0,0,1,55,51.13a7.81,7.81,0,0,1,.66,3.15A8.16,8.16,0,0,1,55,57.57Zm99.29,0a8.66,8.66,0,0,1-1.78,2.63,8,8,0,0,1-2.63,1.74,8.29,8.29,0,0,1-3.22.63,7.26,7.26,0,0,1-3-.67A9,9,0,0,1,141,60.13a8.5,8.5,0,0,1-1.85-2.63,7.57,7.57,0,0,1-.71-3.22,7.65,7.65,0,0,1,.67-3.15,8.59,8.59,0,0,1,1.81-2.66,8.85,8.85,0,0,1,2.63-1.82,7.55,7.55,0,0,1,3.11-.66,7.81,7.81,0,0,1,3.15.66,8.74,8.74,0,0,1,4.48,4.48,7.81,7.81,0,0,1,.66,3.15A8.16,8.16,0,0,1,154.24,57.57Z"/><circle class="cls-2" cx="79.03" cy="29.31" r="3.48"/><circle class="cls-2" cx="91.25" cy="29.31" r="3.48"/></svg>